<svg xmlns="http://www.w3.org/2000/svg" width="900" height="1250" viewBox="0 0 900 1250">
      <defs>
        <linearGradient id="sky" x1="0" y1="0" x2="0" y2="1">
          <stop offset="0" stop-color="#050514"/><stop offset="0.65" stop-color="#0d1b2e"/><stop offset="1" stop-color="#122b3d"/>
        </linearGradient>
        <linearGradient id="aur" x1="0" y1="0" x2="1" y2="0">
          <stop offset="0" stop-color="#5cf0b0"/><stop offset="0.55" stop-color="#6ff2d8"/><stop offset="1" stop-color="#a78bfa"/>
        </linearGradient>
      </defs>
      <rect width="900" height="1250" fill="url(#sky)"/>
      <path d="M-40 223.7375633814372 C 270 124.19851145939901, 540 293.7375633814372, 940 173.7375633814372" stroke="url(#aur)" stroke-width="50.37640600092709" fill="none" opacity="0.55" stroke-linecap="round"/><path d="M-40 344.9810590595007 C 270 216.15494990255684, 540 414.9810590595007, 940 294.9810590595007" stroke="url(#aur)" stroke-width="49.672360230237246" fill="none" opacity="0.44000000000000006" stroke-linecap="round"/><path d="M-40 453.64121592370793 C 270 359.606317661237, 540 523.6412159237079, 940 403.64121592370793" stroke="url(#aur)" stroke-width="62.79627856425941" fill="none" opacity="0.33000000000000007" stroke-linecap="round"/>
      <circle cx="338" cy="708" r="1.5" fill="#fff" opacity="0.83"/><circle cx="34" cy="665" r="2.2" fill="#fff" opacity="0.38"/><circle cx="829" cy="528" r="1.4" fill="#fff" opacity="0.90"/><circle cx="92" cy="538" r="2.2" fill="#fff" opacity="0.81"/><circle cx="153" cy="774" r="0.9" fill="#fff" opacity="0.56"/><circle cx="538" cy="179" r="1.8" fill="#fff" opacity="0.92"/><circle cx="65" cy="285" r="1.7" fill="#fff" opacity="0.82"/><circle cx="560" cy="269" r="1.1" fill="#fff" opacity="0.71"/><circle cx="557" cy="410" r="1.0" fill="#fff" opacity="0.55"/><circle cx="875" cy="200" r="0.9" fill="#fff" opacity="0.89"/><circle cx="102" cy="32" r="1.3" fill="#fff" opacity="0.74"/><circle cx="519" cy="92" r="1.8" fill="#fff" opacity="0.97"/><circle cx="240" cy="326" r="0.9" fill="#fff" opacity="0.34"/><circle cx="669" cy="156" r="1.8" fill="#fff" opacity="0.93"/><circle cx="81" cy="657" r="2.0" fill="#fff" opacity="0.59"/><circle cx="190" cy="490" r="2.2" fill="#fff" opacity="0.82"/><circle cx="551" cy="339" r="2.1" fill="#fff" opacity="0.96"/><circle cx="20" cy="535" r="2.0" fill="#fff" opacity="0.43"/><circle cx="364" cy="50" r="1.0" fill="#fff" opacity="0.73"/><circle cx="184" cy="516" r="0.6" fill="#fff" opacity="0.35"/><circle cx="824" cy="589" r="0.8" fill="#fff" opacity="0.69"/><circle cx="237" cy="221" r="1.6" fill="#fff" opacity="0.37"/><circle cx="563" cy="516" r="1.5" fill="#fff" opacity="0.57"/><circle cx="438" cy="544" r="2.2" fill="#fff" opacity="0.58"/><circle cx="9" cy="425" r="2.2" fill="#fff" opacity="0.80"/><circle cx="63" cy="30" r="0.7" fill="#fff" opacity="0.58"/><circle cx="277" cy="686" r="1.3" fill="#fff" opacity="0.76"/><circle cx="38" cy="390" r="1.8" fill="#fff" opacity="0.68"/><circle cx="107" cy="388" r="2.1" fill="#fff" opacity="0.62"/><circle cx="13" cy="47" r="1.4" fill="#fff" opacity="0.47"/><circle cx="717" cy="602" r="2.0" fill="#fff" opacity="0.39"/><circle cx="659" cy="518" r="1.7" fill="#fff" opacity="0.83"/><circle cx="598" cy="324" r="1.1" fill="#fff" opacity="0.41"/><circle cx="403" cy="61" r="1.7" fill="#fff" opacity="0.48"/><circle cx="39" cy="605" r="0.9" fill="#fff" opacity="0.55"/><circle cx="90" cy="150" r="1.9" fill="#fff" opacity="0.87"/><circle cx="76" cy="594" r="1.9" fill="#fff" opacity="0.73"/><circle cx="278" cy="774" r="0.9" fill="#fff" opacity="0.73"/><circle cx="379" cy="216" r="1.8" fill="#fff" opacity="0.90"/><circle cx="166" cy="30" r="0.9" fill="#fff" opacity="0.33"/><circle cx="573" cy="186" r="1.0" fill="#fff" opacity="0.31"/><circle cx="848" cy="367" r="2.1" fill="#fff" opacity="0.33"/><circle cx="479" cy="130" r="1.8" fill="#fff" opacity="0.36"/><circle cx="304" cy="531" r="1.0" fill="#fff" opacity="0.57"/><circle cx="199" cy="249" r="1.3" fill="#fff" opacity="0.40"/><circle cx="818" cy="355" r="0.7" fill="#fff" opacity="0.99"/><circle cx="22" cy="317" r="2.1" fill="#fff" opacity="0.70"/><circle cx="29" cy="548" r="2.2" fill="#fff" opacity="0.63"/><circle cx="167" cy="658" r="1.0" fill="#fff" opacity="0.50"/><circle cx="715" cy="604" r="1.9" fill="#fff" opacity="0.70"/><circle cx="359" cy="468" r="2.1" fill="#fff" opacity="0.97"/><circle cx="606" cy="248" r="1.0" fill="#fff" opacity="0.81"/><circle cx="128" cy="444" r="2.0" fill="#fff" opacity="0.60"/><circle cx="27" cy="536" r="0.8" fill="#fff" opacity="0.79"/><circle cx="748" cy="423" r="0.7" fill="#fff" opacity="0.34"/><circle cx="375" cy="743" r="1.1" fill="#fff" opacity="0.52"/><circle cx="700" cy="559" r="0.9" fill="#fff" opacity="0.47"/><circle cx="628" cy="344" r="1.8" fill="#fff" opacity="0.40"/><circle cx="875" cy="611" r="1.4" fill="#fff" opacity="0.93"/><circle cx="878" cy="643" r="2.2" fill="#fff" opacity="0.55"/>
      <path d="M0 1250 L0 1000 L0 817 L150 845 L300 933 L450 962 L600 906 L750 769 L900 771 L900 1250 Z" fill="#0a1622" opacity="1"/>
      <path d="M0 1250 L0 1100 L0 943 L113 888 L225 1043 L338 934 L450 870 L563 980 L675 970 L788 892 L900 868 L900 1250 Z" fill="#e8eef4" opacity="0.92"/><radialGradient id="vig" cx="0.5" cy="0.5" r="0.75"><stop offset="0.6" stop-color="#000" stop-opacity="0"/><stop offset="1" stop-color="#000" stop-opacity="0.38"/></radialGradient><rect width="900" height="1250" fill="url(#vig)"/><filter id="g"><feTurbulence type="fractalNoise" baseFrequency="0.8" numOctaves="2"/><feColorMatrix type="saturate" values="0"/><feComponentTransfer><feFuncA type="linear" slope="0.06"/></feComponentTransfer><feComposite operator="over" in2="SourceGraphic"/></filter>
  <rect width="900" height="1250" filter="url(#g)" opacity="0.5"/></svg>